<?xml version="1.0" encoding="utf-8"?>
<!-- Generator: Adobe Illustrator 19.2.1, SVG Export Plug-In . SVG Version: 6.00 Build 0)  -->
<svg version="1.1" id="Layer_1" xmlns="http://www.w3.org/2000/svg" xmlns:xlink="http://www.w3.org/1999/xlink" x="0px" y="0px"
	 viewBox="0 0 100 125" style="enable-background:new 0 0 100 125;" xml:space="preserve">
<g>
	<path d="M28.9,58.2c-4.8-0.4-7.3,5.6-7.4,5.8c-0.2,0.5-0.1,1,0.3,1.3c0,0,4.7,4.4,7.7,8.1c3,3.8,10,15.5,10,15.5
		c1.1,2,3.9,7.5,4.4,8.9c0.4,1.3,0.5,4,0.4,4.9c0,0.3,0.1,0.6,0.3,0.9c0.2,0.2,0.5,0.4,0.9,0.4h27.1c0.6,0,1.1-0.5,1.2-1.1
		c0-0.1,0.2-1.8,0-4.3c-0.2-2,0.5-4,2.1-6c1.9-2.4,2.5-6.9,2.6-7.1c0-0.1,0-0.1,0-0.2V65c0,0,0,0,0,0c0-0.4-0.1-5.3-3.7-6.4
		c-2.2-0.7-4.3-0.2-5.8,0.3c-0.1-1.5-0.7-4.8-3.7-5.7c-2.3-0.7-4.5-0.2-5.9,0.3c-0.3-1.6-1.1-4.1-3.5-4.8c-2.2-0.7-4.3-0.2-5.7,0.3
		v-1.2c5.1-2.6,8.3-7.8,8.3-13.5c0-8.4-6.8-15.2-15.2-15.2c-8.4,0-15.2,6.8-15.2,15.2c0,6.2,3.8,11.8,9.5,14.1v15.6
		C35.5,61.6,31.8,58.4,28.9,58.2z M31.9,34.2c0-6.3,5.2-11.5,11.5-11.5c6.3,0,11.5,5.2,11.5,11.5c0,3.7-1.7,7.1-4.6,9.2v-6.5
		c0-3.2-1.3-8.6-6.3-8.6c-4.6,0-6.3,5.1-6.3,8.6v7.3C34.2,42.2,31.9,38.4,31.9,34.2z M39,72c0.7,0,1.2-0.5,1.2-1.2v-34
		c0-1.6,0.7-6.2,3.9-6.2c3.8,0,3.9,5.6,3.9,6.2v30.3c0,0.7,0.5,1.2,1.2,1.2c0.7,0,1.2-0.5,1.2-1.2V51.5c1-0.4,3-1.2,5-0.6
		c2,0.6,2,4.1,2,4.1v13.3c0,0.7,0.5,1.2,1.2,1.2c0.7,0,1.2-0.5,1.2-1.2V56c1-0.4,3-1.2,5-0.6c2,0.6,2,4.1,2,4.1v10.6
		c0,0.7,0.5,1.2,1.2,1.2c0.7,0,1.2-0.5,1.2-1.2v-8.7c1-0.4,3-1.2,5-0.6c2,0.6,2,4.1,2,4.1v20.2c-0.2,1.2-0.9,4.4-2.1,5.9
		c-1.9,2.5-2.8,5.1-2.6,7.7c0.1,1.1,0.1,2.1,0.1,2.8H46.8c0-1.3-0.1-3.2-0.6-4.5c-0.6-1.8-4.2-8.5-4.6-9.3
		c-0.3-0.5-7.1-12-10.2-15.9c-2.5-3.1-5.9-6.4-7.3-7.8c0.7-1.3,2.3-3.8,4.6-3.6c2.7,0.2,7.2,4.6,9.1,6.7v3.6
		C37.8,71.5,38.3,72,39,72z"/>
</g>
</svg>
